<svg width="48px" height="48px" viewBox="0 0 48 48" version="1.1" xmlns="http://www.w3.org/2000/svg" xmlns:xlink="http://www.w3.org/1999/xlink"><g id="Page-1" stroke="none" stroke-width="1" fill="none" fill-rule="evenodd"><g id="bulb-copy" stroke="#2C3239" stroke-width="2"><path d="M20,37 L29,37 L29,44.1818182 C29,44.1818182 27.7142857,46 24.5,46 C21.2857143,46 20,44.1818182 20,44.1818182 L20,37 Z" id="Rectangle-31"/><path d="M19,40 L30,40" id="Line" stroke-linecap="round" stroke-linejoin="round"/><path d="M19,43 L30,43" id="Line-Copy" stroke-linecap="round" stroke-linejoin="round"/><path d="M18,37 L31,37 C31,30 37,30 37,21 C37,14.5964406 31.4035594,9 24.5,9 C17.5964406,9 12,14.5964406 12,21 C12,30 18,30 18,37 Z" id="Oval-28" stroke-linejoin="round"/><path d="M15,3 L17,7" id="Line-Copy-3" stroke-linecap="round"/><path d="M8,8 L11,11" id="Line-Copy-6" stroke-linecap="round"/><path d="M4,15 L8,16" id="Line-Copy-4" stroke-linecap="round"/><path d="M41,15 L45,16" id="Line-Copy-5" stroke-linecap="round" transform="translate(43.000000, 15.500000) scale(-1, 1) translate(-43.000000, -15.500000) "/><path d="M40,8 L37,11" id="Line-Copy-7" stroke-linecap="round"/><path d="M33,3 L31,7" id="Line-Copy-8" stroke-linecap="round"/><path d="M24,1 L24,5" id="Line-Copy-9" stroke-linecap="round"/><path d="M21.8759311,13.8252994 C19.3842299,14.7476129 17.4123055,16.7414182 16.5195651,19.2473081" id="Oval-38-Copy" stroke-linecap="round"/></g></g></svg>